<?xml version="1.0" encoding="utf-8"?>
<!-- Generator: Adobe Illustrator 26.0.1, SVG Export Plug-In . SVG Version: 6.00 Build 0)  -->
<svg version="1.1" xmlns="http://www.w3.org/2000/svg" xmlns:xlink="http://www.w3.org/1999/xlink" x="0px" y="0px"
	 viewBox="0 0 750 500" style="enable-background:new 0 0 750 500;" xml:space="preserve">
<style type="text/css">
	.st0{fill:#92E3A9;}
	.st1{opacity:0.7;fill:#FFFFFF;}
	.st2{fill:none;stroke:#263238;stroke-linecap:round;stroke-linejoin:round;stroke-miterlimit:10;}
	.st3{fill:#263238;stroke:#263238;stroke-linecap:round;stroke-linejoin:round;stroke-miterlimit:10;}
	.st4{fill:#263238;}
	.st5{fill:none;stroke:#263238;stroke-width:0.5;stroke-linecap:round;stroke-linejoin:round;stroke-miterlimit:10;}
	.st6{fill:#FFFFFF;stroke:#263238;stroke-linecap:round;stroke-linejoin:round;stroke-miterlimit:10;}
	.st7{fill:#949494;stroke:#263238;stroke-linecap:round;stroke-linejoin:round;stroke-miterlimit:10;}
	.st8{fill:#0E9F6A;stroke:#263238;stroke-linecap:round;stroke-linejoin:round;stroke-miterlimit:10;}
	.st9{fill:none;stroke:#FFFFFF;stroke-linecap:round;stroke-linejoin:round;stroke-miterlimit:10;}
</style>
<g id="Background_Simple">
	<g>
		<path class="st0" d="M673.9,209.62c-37.33-32.45-81.99-54.48-126.28-75.75c-49.65-23.85-101.47-47.66-154.65-62.35
			c-17.72-4.89-35.74-8.75-53.96-11.18c-80.14-10.7-156.82,43.54-212.31,95.25c-22.13,20.63-42.79,42.93-61.51,66.71
			c-13.67,17.36-29.98,35.93-35.75,58.17c-6.77,26.13,7.38,48.02,21.49,68.81c11.31,16.67,23.05,32.38,37.23,46.79
			c32.71,33.24,73.24,58.73,117.35,73.82c82.13,28.1,173.3,17.44,257.66,7.26c4.76-0.57,9.51-1.17,14.26-1.79
			c52.09-6.79,103.84-11.39,153.44-30.37c71.98-27.55,120.5-108.43,84.46-182.96C705.47,241.61,690.98,224.47,673.9,209.62z"/>
		<path class="st1" d="M673.9,209.62c-37.33-32.45-81.99-54.48-126.28-75.75c-49.65-23.85-101.47-47.66-154.65-62.35
			c-17.72-4.89-35.74-8.75-53.96-11.18c-80.14-10.7-156.82,43.54-212.31,95.25c-22.13,20.63-42.79,42.93-61.51,66.71
			c-13.67,17.36-29.98,35.93-35.75,58.17c-6.77,26.13,7.38,48.02,21.49,68.81c11.31,16.67,23.05,32.38,37.23,46.79
			c32.71,33.24,73.24,58.73,117.35,73.82c82.13,28.1,173.3,17.44,257.66,7.26c4.76-0.57,9.51-1.17,14.26-1.79
			c52.09-6.79,103.84-11.39,153.44-30.37c71.98-27.55,120.5-108.43,84.46-182.96C705.47,241.61,690.98,224.47,673.9,209.62z"/>
	</g>
</g>
<g id="Floor">
	<line class="st2" x1="42.53" y1="462.12" x2="729.2" y2="462.12"/>
</g>
<g id="Clock">
	<g>
		<circle class="st2" cx="109.32" cy="131.04" r="33.85"/>
		
			<ellipse transform="matrix(0.9732 -0.2298 0.2298 0.9732 -27.1819 28.6212)" class="st2" cx="109.32" cy="131.04" rx="29.94" ry="29.94"/>
		<circle class="st3" cx="109.32" cy="131.04" r="2.86"/>
		<polyline class="st2" points="119.74,136.13 109.32,131.04 91.94,150.03 		"/>
	</g>
</g>
<g id="Picture">
	<g>
		<rect x="628.28" y="96.05" class="st2" width="84.56" height="105.34"/>
		<rect x="631.05" y="99.5" class="st2" width="79.04" height="98.46"/>
		<rect x="654.32" y="128.48" class="st2" width="32.5" height="40.48"/>
	</g>
</g>
<g id="Lamps">
	<g>
		<line class="st2" x1="391.59" y1="39.12" x2="391.59" y2="7.5"/>
		<polygon class="st4" points="417.7,56.03 365.49,56.03 381.15,36.18 402.03,36.18 		"/>
	</g>
	<g>
		<line class="st2" x1="676.08" y1="39.12" x2="676.08" y2="7.5"/>
		<polygon class="st4" points="702.18,56.03 649.97,56.03 665.63,36.18 686.52,36.18 		"/>
	</g>
	<g>
		<line class="st2" x1="107.11" y1="39.12" x2="107.11" y2="7.5"/>
		<polygon class="st4" points="133.22,56.03 81.01,56.03 96.67,36.18 117.55,36.18 		"/>
	</g>
</g>
<g id="Plant">
	<g>
		<g>
			<g>
				<path class="st4" d="M99.38,321.27L99.38,321.27c0.02-0.05,0-0.11-0.05-0.13c-0.05-0.02-0.11,0-0.13,0.05
					c-2.95,6.81-5.02,13.95-6.75,21.16c-1.67,7.23-2.88,14.56-3.72,21.93l-0.53,5.54c-0.08,0.92-0.18,1.85-0.25,2.77l-0.15,2.78
					c-0.08,1.85-0.19,3.71-0.25,5.57l0.05,5.57l0.06,2.78c0.04,0.93,0.11,1.85,0.17,2.78c0.14,1.85,0.25,3.7,0.42,5.55
					c0.36,3.69,0.91,7.37,1.48,11.02c0.01,0.05,0.05,0.08,0.1,0.08c0.05,0,0.1-0.04,0.1-0.1v-0.01c-0.01-1.86-0.09-3.7-0.13-5.55
					c-0.05-1.85-0.21-3.68-0.19-5.53c0.01-1.85-0.04-3.69-0.06-5.53l-0.05-2.76l0.05-2.76l0.02-5.52l0.15-5.52l0.06-2.76
					c0.04-0.92,0.1-1.84,0.15-2.76l0.34-5.51c0.65-7.34,1.65-14.65,3.12-21.88C94.87,335.34,96.69,328.15,99.38,321.27z"/>
				<path class="st4" d="M100.17,350.14c0.01-0.05-0.01-0.11-0.06-0.12c-0.05-0.02-0.11,0.01-0.12,0.06
					c-1.59,4.59-2.86,9.28-3.93,14.02c-1.02,4.75-1.83,9.56-2.32,14.41c-0.49,4.83-1.03,9.67-1.1,14.52
					c-0.07,4.85,0,9.72,0.52,14.57c0.01,0.04,0.04,0.08,0.09,0.09c0.05,0.01,0.1-0.03,0.11-0.09c0.56-4.84,0.9-9.66,1.24-14.48
					c0.34-4.82,0.39-9.65,0.7-14.48c0.29-4.81,0.89-9.6,1.72-14.35C97.83,359.53,98.84,354.79,100.17,350.14z"/>
				<path class="st4" d="M116.18,360.29c-0.03-0.05-0.09-0.06-0.13-0.03c-4.01,2.54-7.58,5.73-10.7,9.33
					c-1.53,1.83-2.96,3.74-4.18,5.82l-0.86,1.62l-0.67,1.69c-0.24,0.56-0.41,1.13-0.59,1.71c-0.17,0.58-0.37,1.15-0.52,1.73
					c-1.2,4.64-2,9.36-2.21,14.12c-0.19,4.75-0.1,9.5,0.53,14.22c0.01,0.04,0.04,0.08,0.09,0.08c0.05,0,0.1-0.04,0.1-0.09
					l1.22-14.07c0.49-4.65,0.78-9.33,1.78-13.88c0.13-0.57,0.29-1.12,0.43-1.68c0.15-0.56,0.29-1.12,0.49-1.66l0.57-1.63l0.74-1.54
					c1.08-2.03,2.41-3.98,3.83-5.82c2.86-3.69,6.22-7.05,10.05-9.78l0.01,0C116.19,360.39,116.2,360.34,116.18,360.29z"/>
				<path class="st4" d="M108.43,378.37c-2.18,1.41-3.64,3.62-4.87,5.85c-1.17,2.28-2.09,4.69-2.73,7.17
					c-0.19,0.61-0.34,1.23-0.48,1.86l-0.44,1.87c-0.22,1.26-0.4,2.53-0.47,3.8c-0.02,1.28-0.05,2.55,0.03,3.82
					c0.11,1.27,0.25,2.54,0.5,3.8c0.01,0.04,0.04,0.07,0.08,0.08c0.05,0.01,0.11-0.02,0.12-0.08c0.31-1.26,0.51-2.5,0.67-3.74
					c0.2-1.24,0.39-2.47,0.54-3.7c0.18-1.23,0.34-2.45,0.44-3.69c0.17-1.22,0.26-2.47,0.53-3.67c0.43-2.44,1.13-4.82,2.09-7.1
					c0.95-2.26,2.19-4.51,4.09-6.1l0.01-0.01c0.04-0.03,0.05-0.08,0.02-0.13C108.54,378.36,108.48,378.35,108.43,378.37z"/>
				<path class="st4" d="M85.99,392.47c-0.53-6.25-1.56-12.43-2.53-18.62c-0.98-6.18-2.05-12.35-3.19-18.5
					c-1.17-6.15-2.4-12.28-3.72-18.39c-0.01-0.05-0.06-0.08-0.11-0.08c-0.05,0.01-0.09,0.06-0.08,0.11
					c1.07,6.16,2.04,12.34,2.95,18.52c0.94,6.18,1.82,12.36,2.6,18.56c0.76,6.2,1.36,12.41,2.14,18.6l2.29,18.6
					c0.01,0.05,0.04,0.08,0.09,0.09c0.05,0,0.1-0.04,0.1-0.09c0.07-1.57,0.07-3.13,0.11-4.71c0.01-1.57-0.06-3.13-0.09-4.7
					C86.49,398.72,86.22,395.6,85.99,392.47z"/>
				<path class="st4" d="M82.24,392.38c-0.33-2.47-0.79-4.93-1.26-7.39l-0.88-3.65c-0.29-1.22-0.56-2.43-0.92-3.64
					c-1.25-4.84-2.84-9.6-4.78-14.21l-0.75-1.72l-0.83-1.68c-0.53-1.13-1.17-2.21-1.78-3.3c-1.31-2.13-2.66-4.25-4.51-5.98
					c-0.04-0.03-0.1-0.03-0.13,0c-0.04,0.04-0.04,0.1,0,0.14l0.01,0.01c1.71,1.77,2.95,3.96,4.13,6.11c0.54,1.11,1.12,2.2,1.58,3.35
					l0.73,1.7l0.65,1.74c1.73,4.63,3.12,9.38,4.16,14.21c0.57,2.4,0.95,4.85,1.41,7.28l0.58,3.66c0.21,1.22,0.47,2.43,0.64,3.65
					c0.39,2.44,0.84,4.88,1.27,7.32c0.38,2.45,0.83,4.9,1.34,7.35c0.01,0.04,0.05,0.08,0.1,0.08c0.05,0,0.1-0.04,0.1-0.1
					c0.01-2.5-0.05-4.99-0.17-7.49C82.79,397.35,82.5,394.87,82.24,392.38z"/>
				<path class="st4" d="M77.07,392.7c-1.16-3.28-2.5-6.49-3.96-9.63c-1.5-3.13-3.11-6.2-4.98-9.12c-0.03-0.04-0.09-0.06-0.13-0.03
					c-0.05,0.03-0.06,0.09-0.03,0.13c1.63,3.04,3,6.2,4.25,9.41c1.27,3.2,2.41,6.44,3.37,9.73c0.98,3.29,1.68,6.65,2.55,9.95
					c0.92,3.3,1.67,6.64,2.68,9.99c0.01,0.04,0.05,0.07,0.09,0.07c0.05,0,0.1-0.04,0.1-0.1c0.05-3.49-0.29-6.98-0.97-10.39
					C79.43,399.27,78.22,395.98,77.07,392.7z"/>
				<path class="st4" d="M76.86,403.62c-0.59-2.05-1.6-3.96-2.75-5.77c-1.13-1.81-2.44-3.52-4-4.97c-0.81-0.7-1.63-1.37-2.55-1.92
					c-0.9-0.56-1.85-1.04-2.89-1.31c-0.05-0.01-0.09,0.01-0.11,0.05c-0.02,0.05,0,0.11,0.05,0.13l0.01,0.01
					c1.87,0.83,3.45,2.21,4.79,3.72c1.36,1.51,2.44,3.25,3.34,5.05c0.95,1.79,1.44,3.78,2.26,5.63c0.36,0.95,0.73,1.9,1.15,2.85
					c0.36,0.97,0.75,1.93,1.26,2.89l0,0.01c0.02,0.03,0.05,0.05,0.08,0.05c0.06,0,0.1-0.04,0.1-0.1c0.04-1.07-0.02-2.13-0.12-3.19
					C77.33,405.7,77.11,404.66,76.86,403.62z"/>
			</g>
			<path class="st0" d="M77.24,345.91c0,0-10.24-2.36-12.6-13.39c-2.36-11.03,5.25-6.3-1.58-23.63
				c-6.83-17.33-5.25-21.26-2.89-26.25c2.36-4.99,3.68-3.41,5.78,3.15c2.1,6.56,9.71,16.8,12.6,35.96
				C81.44,340.92,77.24,345.91,77.24,345.91z"/>
			<path class="st0" d="M97.46,327.27c0,0-6.83-2.36-7.09-15.23c-0.26-12.86,4.99-10.24,5.78-26.25c0.79-16.01,1.84-27.3,4.73-27.56
				c2.89-0.26,10.5,7.88,13.13,25.73c2.62,17.85-3.41,29.66-8.66,34.91C100.08,324.12,97.46,327.27,97.46,327.27z"/>
			<path class="st0" d="M73.57,361.4c0,0-1.58-9.45-4.73-13.91c-3.15-4.46-9.98-8.4-14.44-17.06c-4.46-8.66-9.45-12.86-9.19-0.53
				c0.26,12.34,5.78,18.64,12.6,22.84C64.64,356.93,73.57,361.4,73.57,361.4z"/>
			<path class="st0" d="M70.68,377.67c0,0-6.3-12.08-15.49-21c-9.19-8.93-16.54-13.39-13.91-8.93c2.63,4.46,5.78,4.2,10.24,12.08
				c4.46,7.88,3.15,13.65,9.45,18.11C67.27,382.4,70.68,377.67,70.68,377.67z"/>
			<path class="st0" d="M69.89,393.16c-0.26-0.79-0.53-6.56-9.45-11.29c-8.93-4.72-17.33-2.89-16.28-0.52
				c1.05,2.36,6.56,6.3,12.08,8.66C61.75,392.37,69.89,393.16,69.89,393.16z"/>
			<path class="st0" d="M96.93,361.92c0,0-3.94-4.99-1.84-15.49c2.1-10.5,6.83-7.88,12.08-13.39c5.25-5.51,4.2-6.3,9.45-12.08
				c5.25-5.78,9.98-8.93,12.08-6.56c2.1,2.36-1.05,9.71-4.2,13.91c-3.15,4.2-8.14,6.3-10.5,11.55c-2.36,5.25-1.31,13.65-7.35,17.59
				C100.61,361.4,96.93,361.92,96.93,361.92z"/>
			<path class="st0" d="M110.06,364.81c0,0,9.45-10.76,16.28-18.64c6.83-7.88,9.45-13.91,9.71-8.66c0.26,5.25,2.36,9.45-3.15,16.28
				C127.38,360.61,110.06,364.81,110.06,364.81z"/>
			<path class="st0" d="M105.07,382.13c0,0-0.26-4.2,14.7-13.91c14.96-9.71,21.26-11.55,19.69-7.61
				c-1.57,3.94-8.14,7.88-15.23,14.96C117.14,382.66,105.07,382.13,105.07,382.13z"/>
			<path class="st5" d="M77.87,344.79c0,0-3.51-18.83-7.19-32.22c-3.68-13.39-6.04-21.53-6.04-21.53"/>
			<path class="st5" d="M96.85,327.47c0,0,6.38-20.41,8.48-32.75c2.1-12.34-0.26-21.53-1.31-27.04"/>
			<path class="st5" d="M72.74,361c0,0-3.9-6.96-9.67-13.78c-5.78-6.83-10.24-10.5-12.86-17.06"/>
			<path class="st5" d="M96.93,361.92c0,0,2.1-12.6,7.09-19.16c4.99-6.56,14.96-16.8,18.9-23.36"/>
			<path class="st5" d="M69.27,392.87c0,0-8.83-5.75-15.13-8.9"/>
		</g>
		<polygon class="st3" points="100.85,462.12 76.13,462.12 70.83,403.43 106.15,403.43 		"/>
	</g>
</g>
<g id="Board">
	<g>
		<g>
			<rect x="256.32" y="105.64" class="st3" width="247.36" height="169.7"/>
			<rect x="260.25" y="109.73" class="st6" width="239.51" height="161.51"/>
		</g>
		<g>
			<rect x="346.02" y="150.64" class="st0" width="35.2" height="28.22"/>
			<rect x="382.43" y="179.32" class="st0" width="35.2" height="28.22"/>
			<rect x="346.02" y="235.76" class="st0" width="35.2" height="28.22"/>
			<rect x="419.31" y="122.87" class="st0" width="35.2" height="28.22"/>
			<g>
				<line class="st2" x1="272.88" y1="126.97" x2="272.88" y2="263.99"/>
				<line class="st2" x1="309.14" y1="126.97" x2="309.14" y2="263.99"/>
				<line class="st2" x1="345.41" y1="126.97" x2="345.41" y2="263.99"/>
				<line class="st2" x1="381.67" y1="126.97" x2="381.67" y2="263.99"/>
				<line class="st2" x1="417.94" y1="126.97" x2="417.94" y2="263.99"/>
				<line class="st2" x1="454.2" y1="126.97" x2="454.2" y2="263.99"/>
				<line class="st2" x1="490.47" y1="126.97" x2="490.47" y2="263.99"/>
				<line class="st2" x1="273.79" y1="150.64" x2="490.93" y2="150.64"/>
				<line class="st2" x1="273.79" y1="178.86" x2="490.93" y2="178.86"/>
				<line class="st2" x1="273.79" y1="207.09" x2="490.93" y2="207.09"/>
				<line class="st2" x1="273.79" y1="235.31" x2="490.93" y2="235.31"/>
				<g>
					<line class="st2" x1="351.17" y1="155.65" x2="373.02" y2="155.65"/>
					<line class="st2" x1="351.17" y1="159.29" x2="373.02" y2="159.29"/>
					<line class="st2" x1="351.17" y1="162.93" x2="373.02" y2="162.93"/>
					<line class="st2" x1="351.17" y1="166.57" x2="373.02" y2="166.57"/>
					<line class="st2" x1="351.17" y1="170.21" x2="373.02" y2="170.21"/>
				</g>
				<g>
					<line class="st2" x1="389.41" y1="186.15" x2="411.26" y2="186.15"/>
					<line class="st2" x1="389.41" y1="189.79" x2="411.26" y2="189.79"/>
					<line class="st2" x1="389.41" y1="193.43" x2="411.26" y2="193.43"/>
					<line class="st2" x1="389.41" y1="197.07" x2="411.26" y2="197.07"/>
					<line class="st2" x1="389.41" y1="200.71" x2="411.26" y2="200.71"/>
				</g>
				<g>
					<line class="st2" x1="352.08" y1="242.14" x2="373.93" y2="242.14"/>
					<line class="st2" x1="352.08" y1="245.78" x2="373.93" y2="245.78"/>
					<line class="st2" x1="352.08" y1="249.42" x2="373.93" y2="249.42"/>
					<line class="st2" x1="352.08" y1="253.06" x2="373.93" y2="253.06"/>
					<line class="st2" x1="352.08" y1="256.7" x2="373.93" y2="256.7"/>
				</g>
				<g>
					<line class="st2" x1="424.46" y1="130.61" x2="446.31" y2="130.61"/>
					<line class="st2" x1="424.46" y1="134.25" x2="446.31" y2="134.25"/>
					<line class="st2" x1="424.46" y1="137.89" x2="446.31" y2="137.89"/>
					<line class="st2" x1="424.46" y1="141.53" x2="446.31" y2="141.53"/>
					<line class="st2" x1="424.46" y1="145.18" x2="446.31" y2="145.18"/>
				</g>
			</g>
		</g>
	</g>
</g>
<g id="Chair_2">
	<g>
		
			<rect x="674.81" y="340.5" transform="matrix(-1 -1.224647e-16 1.224647e-16 -1 1360.2947 699.9387)" class="st3" width="10.67" height="18.95"/>
		<path class="st7" d="M670.02,346.26h21.9c8.63,0,15.63-7,15.63-15.63v-50.07c0-8.63-7-15.63-15.63-15.63h-21.9
			c-8.63,0-15.63,7-15.63,15.63v50.07C654.39,339.26,661.38,346.26,670.02,346.26z"/>
		<g>
			<path class="st3" d="M696.91,458.73c0-2.49,2.02-4.51,4.51-4.51c2.49,0,4.51,2.02,4.51,4.51c0,2.49-2.02,4.51-4.51,4.51
				C698.93,463.24,696.91,461.22,696.91,458.73z"/>
			<path class="st3" d="M608.7,458.73c0-2.49,2.02-4.51,4.51-4.51c2.49,0,4.51,2.02,4.51,4.51c0,2.49-2.02,4.51-4.51,4.51
				C610.72,463.24,608.7,461.22,608.7,458.73z"/>
			<path class="st3" d="M655.12,458.73c0-2.49,0.94-4.51,2.1-4.51c1.16,0,2.1,2.02,2.1,4.51c0,2.49-0.94,4.51-2.1,4.51
				C656.06,463.24,655.12,461.22,655.12,458.73z"/>
			<polygon class="st3" points="653.11,434.22 653.11,369.5 661.97,369.5 661.97,434.49 705.71,451.79 705.71,456.13 699.35,456.13 
				699.35,452.45 657.21,443.76 615.06,452.45 615.06,456.13 608.71,456.13 608.71,451.79 			"/>
			<polygon class="st3" points="659.44,456.12 655,456.12 654.05,435.11 660.39,435.11 			"/>
		</g>
		
			<rect x="646.29" y="367.03" transform="matrix(-1 -1.224647e-16 1.224647e-16 -1 1315.109 747.4456)" class="st3" width="22.53" height="13.38"/>
		<path class="st7" d="M624.03,371.96h69.16c3.27,0,5.91-2.65,5.91-5.91v-5.43c0-3.27-2.65-5.91-5.91-5.91h-69.16
			c-3.27,0-5.91,2.65-5.91,5.91v5.43C618.12,369.32,620.77,371.96,624.03,371.96z"/>
	</g>
</g>
<g id="Character_4">
	<g>
		<g>
			<path class="st6" d="M589.72,440.64c0,0-3.91,5.65-9.55,8.9c-5.65,3.26-14.33,4.56-14.33,6.3s0.65,4.78,7.17,5.65
				c6.51,0.87,34.75,1.3,38.44,0.43c3.69-0.87,0.22-19.11,0.22-19.11S594.49,443.68,589.72,440.64z"/>
			<path class="st6" d="M572.99,461.49c6.51,0.87,34.75,1.3,38.44,0.43c0.94-0.22,1.42-1.58,1.6-3.47
				c-7.87,0.24-23.22,0.48-32.44-0.01c-12.38-0.65-14.77-2.61-14.77-2.61C565.83,457.58,566.48,460.62,572.99,461.49z"/>
		</g>
		<path class="st3" d="M570.17,270.82c0,0,1.74,25.62,3.26,36.48c1.52,10.86,7.17,55.16,10.86,66.67c3.69,11.51,7.6,61.02,7.6,61.02
			s-4.13,1.52-3.91,3.26c0.22,1.74,0.43,4.34,0.43,4.34s8.47,4.56,13.46,4.56c4.99,0,11.29-2.17,11.29-2.17s-1.3-19.33-1.95-34.53
			c-0.65-15.2-6.95-79.91-6.95-79.91l-1.3-64.5L570.17,270.82z"/>
		<g>
			<path class="st6" d="M606.87,445.42c0,0,0.43,4.13-10.42,7.82c-10.86,3.69-12.16,7.6-10.86,10.86c1.3,3.26,23.89,3.26,32.36,1.95
				c8.47-1.3,12.81-1.74,13.46-3.47c0.65-1.74-1.74-14.98-1.74-14.98L606.87,445.42z"/>
			<path class="st6" d="M631.41,462.58c0.13-0.36,0.14-1.21,0.06-2.33c-2.97,0.55-6.95,1.3-12.22,2.33
				c-11.6,2.26-26.9,0.93-34.03,0.09c0.06,0.49,0.18,0.97,0.37,1.43c1.3,3.26,23.89,3.26,32.36,1.95
				C626.42,464.75,630.76,464.31,631.41,462.58z"/>
		</g>
		<path class="st3" d="M577.99,277.12l6.3,7.6c0,0,4.78,52.55,6.51,66.23s9.99,62.54,9.99,62.54l5.21,26.06c0,0-0.87,2.17-1.3,3.26
			c-0.43,1.09-0.22,3.47,0,4.34c0.22,0.87-0.22,1.52,8.03,2.82c8.25,1.3,16.5,0,16.5,0s1.09-2.61,1.09-6.08c0-3.47,0-4.99-0.65-8.47
			c-0.65-3.47,0-21.93-4.78-41.69c-4.78-19.76-8.25-42.56-8.25-50.16c0-7.6,0.22-52.12,0.43-52.99c0.22-0.87,4.34-3.69,4.56-11.73
			c0.22-8.03-0.87-11.08-0.87-11.08h-42.35"/>
		<path class="st8" d="M577.77,169.63c0,0-9.77,24.32-10.42,40.39c-0.65,16.07,0,38.87,0.22,39.74c0.22,0.87-2.39,19.11-0.87,21.93
			c1.52,2.82,4.13,1.95,4.13,1.95s47.56,0.65,49.73,0.22c2.17-0.43,2.61-3.26,3.04-5.43c0.43-2.17-1.3-28.01-1.3-31.92
			c0-3.91,1.3-47.56-4.13-59.72c-5.43-12.16-18.89-22.15-20.63-22.58C595.8,153.77,581.68,158.55,577.77,169.63z"/>
		<g>
			<path class="st6" d="M554.02,121.8c0,0-1.66,7.97-1.16,8.64c0.5,0.66,2.16,3.82,2.16,3.82l-4.32,11.8l5.15,1.5l7.31,12.63
				l11.3-3.16l3.32,15.12c0,0-0.5,5.48,1.99,3.99c2.49-1.5,4.65-3.16,9.47-11.46c4.82-8.31,9.64-9.64,9.64-9.64
				s-5.98-7.97-7.14-10.47c-1.16-2.49-0.5-6.65-2.49-16.78c-1.99-10.13-8.81-12.29-18.11-12.29
				C561.83,115.49,554.85,117.31,554.02,121.8z"/>
			<path class="st3" d="M558.67,112.33c0,0-7.48,1.66-8.81,3.16c-1.33,1.5,0.66,6.15,2.49,7.14c1.83,1,13.62-1.66,13.46-0.83
				c-0.17,0.83-1.99,2.99,0,3.82c1.99,0.83,9.97,2.99,9.97,2.99l-1.99,15.28c0,0-9.8-0.5-12.13,0c-2.33,0.5-5.81,3.66-5.81,3.66
				s4.32,13.12,5.15,14.45c0.83,1.33,3.16,1,5.81,0c2.66-1,13.46-8.81,14.62-9.8c1.16-1-1.33-10.8-1.33-10.8s0.33-8.14,0.33-9.8
				c0-1.66,2.16-1.66,3.66-0.5c1.5,1.16,1.99,5.65,1.66,7.31c-0.33,1.66-2.16,3.32-2.16,3.32s6.31,4.82,7.64,4.82
				s1.66-0.83,1.83-1.33c0.17-0.5-0.17-14.79-0.17-14.79s0.33-13.62-1.5-17.94c-1.83-4.32-10.47-5.48-15.95-4.65
				C569.97,108.68,558.67,112.33,558.67,112.33z"/>
			<path class="st2" d="M559.98,134.93c0.16,0.9-0.11,1.71-0.61,1.79c-0.5,0.09-1.03-0.57-1.19-1.48c-0.16-0.9,0.11-1.71,0.61-1.79
				C559.29,133.37,559.83,134.03,559.98,134.93z"/>
			<path class="st2" d="M556.34,131.6c0,0,2.16-2.33,4.65-0.33"/>
			<path class="st9" d="M561.16,149.88c0,0,3.82-1.16,4.98-3.82"/>
		</g>
		<path class="st6" d="M605.79,225c0,0-9.34,41.48-10.21,43.65c-0.87,2.17-4.56,10.86-4.56,10.86l10.21,8.9c0,0,1.52-2.39,2.82-8.03
			c1.3-5.65,1.52-11.08,1.52-11.08s14.77-31.49,17.16-35.83c2.39-4.34,0.65-7.6,0.65-8.69S605.79,225,605.79,225z"/>
		<path class="st8" d="M599.05,177.66c0,0-2.39,7.6-2.17,11.29c0.22,3.69,5.21,25.84,5.21,25.84s-2.61,2.39-1.74,3.26
			c0.87,0.87,2.17,3.04,2.17,3.04s-1.95,1.52,0,3.69c1.95,2.17,1.09,3.26,10.21,3.04c9.12-0.22,11.94-0.65,13.03-2.39
			c1.09-1.74,2.39-3.04,1.3-4.78c-1.09-1.74-1.09-1.74-1.09-1.74s1.09-1.95,0.87-4.34c-0.22-2.39-1.74-5.21-1.74-6.3
			s-0.22-15.85-3.04-27.36c-2.82-11.51-14.77-17.81-16.94-18.02"/>
	</g>
</g>
<g id="Character_3">
	<g>
		<path class="st6" d="M471.09,287.13c0,0,0.34,13.62,0.34,14.14s-1.7,10.22-0.85,14.82c0.85,4.6,7.66,10.9,7.66,10.9l0.68-41.04
			L471.09,287.13z"/>
		<path class="st8" d="M491.64,193.2c0,0-19.98,24.35-20.61,27.06c-0.62,2.71-5.83,68.69-5.83,69.32c0,0.62,8.12,3.75,11.45,3.75
			c3.33,0,4.79,0,4.79,0s-5.62-45.38-3.12-62.24c2.5-16.86,8.53-21.65,13.11-28.1C496.02,196.53,496.02,191.54,491.64,193.2z"/>
		<g>
			<path class="st3" d="M492.69,441.74c0,0-5.2,7.49-8.12,9.16c-2.91,1.67-12.49,5.62-12.91,6.66s-0.42,3.54,0.42,3.75
				c0.83,0.21,15.2-0.21,23.94-0.21c8.74,0,14.57,0.42,15.61-0.62c1.04-1.04,0.21-14.57-0.83-17.28c-1.04-2.71-1.04-2.71-1.04-2.71
				l-15.61-0.42L492.69,441.74z"/>
			<path class="st6" d="M511.98,459.22h-40.58c-0.02,0.98,0.18,1.95,0.69,2.08c0.83,0.21,15.2-0.21,23.94-0.21
				c8.74,0,14.57,0.42,15.61-0.62C511.78,460.32,511.9,459.87,511.98,459.22z"/>
		</g>
		<path class="st6" d="M472.7,284.79l2.71,12.7c0,0-0.42,33.1,2.91,47.46c3.33,14.36,3.33,28.31,3.33,28.31s4.58,22.69,6.24,29.14
			c1.67,6.45,3.54,33.72,3.54,33.72s-1.67,1.25-1.46,2.08c0.21,0.83,0.83,6.04,0.83,6.04s0.83,0,7.49,0.62
			c6.66,0.62,10.2,0.21,10.2,0.21l2.29-1.87c0,0,0.21-2.91,0-6.66c-0.21-3.75-1.46-6.66-1.46-9.16c0-2.5-1.46-57.45-1.46-57.45
			l0.62-86.18l-36.43-2.08L472.7,284.79z"/>
		<g>
			<path class="st3" d="M513.08,441.32c0,0-1.87,4.58-3.75,7.08c-1.87,2.5-9.58,6.87-12.7,8.53c-3.12,1.67-3.12,5.2-3.12,5.2
				s7.08,0.21,30.39-0.62l9.99-0.42c0,0,0.21-2.71-0.21-5.83c-0.42-3.12-0.83-11.03-0.83-11.03L513.08,441.32z"/>
			<path class="st6" d="M523.91,461.51l9.99-0.42c0,0,0.11-1.41,0.01-3.37l-39.84,2.03c-0.55,1.27-0.55,2.38-0.55,2.38
				S500.6,462.35,523.91,461.51z"/>
		</g>
		<path class="st6" d="M486.02,299.57l7.91,7.7c0,0,3.12,29.97,6.24,47.67c3.12,17.69,11.24,63.28,11.24,67.03
			s1.67,13.32,1.67,13.32s-0.62,0.21-0.83,1.67c-0.21,1.46-0.21,7.08-0.21,7.08s5.2,2.5,9.78,2.91c4.58,0.42,11.66-0.21,11.66-0.21
			s0.83-4.79,0.83-6.45s-0.62-8.95-0.21-11.86c0.42-2.91,3.33-17.69,2.5-33.93s-5.83-41.42-5.83-41.42l1.67-36.64
			c0,0,3.12-9.16,2.08-20.4c-1.04-11.24-3.54-15.61-3.54-15.61l-48.71,0.21"/>
		<path class="st3" d="M491.64,193.2c0,0-16.65,20.61-18.32,29.77c-1.67,9.16-3.95,60.99-3.95,63.07c0,2.08,3.33,2.91,7.29,3.54
			c3.95,0.62,10.2,1.25,17.07,1.04c6.87-0.21,13.95-2.5,14.99-3.75c1.04-1.25-1.04-38.09,2.5-58.28s7.08-31.01,5-34.97
			C514.12,189.66,498.72,189.04,491.64,193.2z"/>
		<path class="st8" d="M508.5,192.16c0,0-12.49,21.86-14.78,37.26s-0.62,66.82-0.62,66.82s0,2.08,9.58,1.87
			c9.58-0.21,22.48-2.71,26.02-4.58c3.54-1.87,7.49-3.33,7.7-4.37c0.21-1.04-1.87-4.79-1.87-7.91c0-3.12-1.46-16.03-1.46-16.03
			s-0.42-56.83-3.54-64.94C526.41,192.16,514.12,189.87,508.5,192.16z"/>
		<g>
			<path class="st6" d="M478.11,153.24c0,0-1.67,6.66-1.04,8.74c0.62,2.08,0.83,4.37,0.62,5.2c-0.21,0.83-5,6.24-3.95,7.29
				s3.54,2.71,3.54,2.71s1.04,11.03,2.91,11.66s8.74-0.62,8.74-0.62s2.29,8.53,2.29,9.99c0,1.46-7.08,17.07-3.12,15.82
				c3.96-1.25,19.77-24.15,19.77-24.15s-0.21-29.35-4.79-36.84C498.51,145.54,484.78,146.79,478.11,153.24z"/>
			<path class="st4" d="M482.9,167.08c0,1.09-0.42,1.98-0.94,1.98s-0.94-0.89-0.94-1.98c0-1.09,0.42-1.98,0.94-1.98
				S482.9,165.99,482.9,167.08z"/>
			<path class="st2" d="M479.78,162.81c0,0,2.5-2.08,4.37,0.62"/>
			<path class="st2" d="M480.2,178.84c0,0,3.54-0.21,6.04-2.08"/>
		</g>
		<path class="st3" d="M485.61,138.04c0,0-10.2,3.95-11.24,7.7c-1.04,3.75-1.87,8.12-1.87,8.12l9.16,1.87l7.91,0.62
			c0,0-0.21,1.87,2.08,6.24c2.29,4.37,3.33,7.08,3.33,7.08s-0.62,12.28-1.25,15.82c-0.62,3.54-2.08,7.7-2.08,7.7
			s5.2,1.04,14.78,2.08c9.58,1.04,21.44-1.25,21.44-1.25s2.5-4.16,2.29-12.49c-0.21-8.33-4.16-20.19-4.58-24.98
			c-0.42-4.79,0.83-8.12-6.66-13.95C511.42,136.79,498.1,134.71,485.61,138.04z"/>
		<g>
			<g>
				<path class="st6" d="M467.17,261.61c-0.8,0-1.4-0.09-1.57-0.11l0.47-2.96c0.99,0.15,3.26,0.15,3.95-0.84
					c0.94-1.34,0.21-8.78-0.75-10.04c-0.36-0.42-2.07-0.42-3.3-0.13l-0.68-2.92c0.74-0.17,4.52-0.94,6.27,1.11
					c1.63,1.91,2.8,11.01,0.92,13.7C471.18,261.27,468.78,261.61,467.17,261.61z"/>
			</g>
			<rect x="449.39" y="241.91" class="st6" width="17.9" height="23.31"/>
		</g>
		<g>
			<path class="st8" d="M514.12,205.28c0,0-3.54,7.91-3.75,11.86c-0.21,3.96,4.37,30.81,4.37,30.81s-14.99,3.75-19.15,3.75
				c-4.16,0-6.87-0.42-6.87-0.42s-5.62-3.75-7.29-4.79s-2.91-0.42-5.83-2.71c-2.91-2.29-5.2-2.5-5.41-1.25
				c-0.21,1.25-0.21,2.08,1.87,3.12c2.08,1.04,3.75,2.5,3.75,2.5s-5,1.04-6.45,1.25c-1.46,0.21-1.87,2.29-1.04,3.33
				c0.83,1.04,2.29,2.5,2.29,2.5s-0.21,5,2.5,6.04c2.71,1.04,10.2,0.83,10.2,0.83s7.91,0.62,9.16,0.62c1.25,0,17.07,3.95,28.31,3.95
				s14.57,0.62,15.2-1.87c0.62-2.5-0.42-39.34-2.5-50.58c-2.08-11.24-6.87-17.48-10.2-17.9"/>
			<path class="st6" d="M502.52,250.7c-2.88,0.57-5.52,0.99-6.92,0.99c-4.16,0-6.87-0.42-6.87-0.42s-5.62-3.75-7.29-4.79
				c-1.67-1.04-2.91-0.42-5.83-2.71c-2.91-2.29-5.2-2.5-5.41-1.25c-0.21,1.25-0.21,2.08,1.87,3.12c2.08,1.04,3.75,2.5,3.75,2.5
				s-5,1.04-6.45,1.25c-1.46,0.21-1.87,2.29-1.04,3.33c0.83,1.04,2.29,2.5,2.29,2.5s-0.21,5,2.5,6.04s10.2,0.83,10.2,0.83
				s7.91,0.62,9.16,0.62c0.66,0,5.36,1.1,11.31,2.14C501.64,259.82,501.92,254.35,502.52,250.7z"/>
		</g>
	</g>
</g>
<g id="Character_2">
	<g>
		<g>
			<g>
				<path class="st6" d="M264.59,446.37c0,0-1,6.38-3.99,12.76c-2.99,6.38-3.19,8.77,3.59,9.77c6.78,1,10.17-0.6,11.56-4.19
					c1.4-3.59,1.99-12.16,2.39-14.15C278.55,448.56,273.17,442.38,264.59,446.37z"/>
				<path class="st6" d="M275.76,461.72c-1.4,2.59-3.19,5.78-10.36,5.18c-4.08-0.34-5.77-2.09-6.47-3.55
					c-0.92,3.3,0.27,4.8,5.28,5.54c6.78,1,10.17-0.6,11.56-4.19c0.49-1.27,0.89-3.17,1.21-5.18
					C276.6,460.17,276.19,460.91,275.76,461.72z"/>
			</g>
			<g>
				<path class="st6" d="M321,444.58c0,0,4.19,3.99,10.56,6.78c6.38,2.79,10.96,4.38,10.96,5.78c0,1.4-1.4,3.99-1.4,3.99
					s-6.78,1.99-13.55,1.99s-12.36-0.6-17.34-0.8c-4.98-0.2-10.76,0.4-11.16-3.19c-0.4-3.59,0.4-10.36,0.4-10.36
					S317.01,443.38,321,444.58z"/>
				<path class="st6" d="M341.13,461.12c0,0,0.35-0.65,0.7-1.47c-2.69,0.47-6.28,0.97-9.87,1.07c-7.18,0.2-9.77-0.8-17.94-1.79
					c-6.15-0.75-12.3-0.26-14.96,0.03c0.01,0.05,0.01,0.12,0.01,0.17c0.4,3.59,6.18,2.99,11.16,3.19c4.98,0.2,10.56,0.8,17.34,0.8
					S341.13,461.12,341.13,461.12z"/>
			</g>
			<path class="st3" d="M322.21,288.28c0,0,1.03,30.15-0.82,56.81s-4.31,65.83-3.28,71.37c1.03,5.54,1.85,23.38,1.85,23.38
				l1.85,2.26l1.03,3.69c0,0-1.03,1.03-7.38,2.87c-6.36,1.85-15.59,2.26-15.59,2.26s-0.41-6.15-0.41-7.79
				c0-1.64,0.41-5.33,0.41-5.33s-3.49-43.27-2.87-52.09c0.62-8.82-0.62-44.09-0.62-44.09l-1.03-12.72c0,0-8.2,33.02-8.61,37.12
				c-0.41,4.1-6.15,45.94-6.15,48.4c0,2.46-2.46,25.84-2.46,25.84s1.44,2.26,1.64,4.51c0.21,2.26-1.44,8-1.44,8
				s-3.08-2.05-5.95-2.26c-2.87-0.21-8.41-0.62-8.41-0.62s-1.64-11.9-1.64-14.36c0-2.46,0-12.72,0-12.72s-0.82-29.33,0.62-40.61
				c1.44-11.28,0.62-46.14-0.21-60.91c-0.82-14.77-2.87-27.89-1.44-31.17c1.44-3.28,2.26-7.38,2.26-7.38s14.77,3.28,31.79,4.31
				c17.02,1.03,25.64-2.05,25.64-2.05L322.21,288.28z"/>
			<line class="st9" x1="295.34" y1="328.89" x2="299.87" y2="315.62"/>
		</g>
		<path class="st6" d="M294.97,293.75c0,0,3.67,0.39,11.58-0.77c7.91-1.16,11.2-2.9,11.2-2.9s-5.21-100.58-5.21-101.54
			c0-0.97,0-5.5-5.41-6.47s-12.55,1.35-14.09,7.34C291.5,195.39,294.97,293.75,294.97,293.75z"/>
		<path class="st6" d="M317.56,298.96c0,0-0.58,5.98,0,6.37c0.58,0.39,6.18-1.74,9.85-3.28c3.67-1.54,2.45-0.93,3.64-4.42
			c1.19-3.49,0.8-3.49-2.87-2.52C324.51,296.07,317.56,298.96,317.56,298.96z"/>
		<path class="st8" d="M309.9,200.56l4.32,58.21l2.23,41.98c0,0,0.74,1.34,1.94,1.04c1.19-0.3,11.46-2.68,12.65-4.17
			c1.19-1.49,1.64-5.36,1.64-5.96c0-0.6-3.13-37.22-3.13-37.22l8.04-10.72c0,0-6.1-33.5-7.59-40.2c-1.49-6.7-1.49-10.27-3.87-13.25
			c-2.38-2.98-16.08-9.68-16.08-9.68L309.9,200.56z"/>
		<path class="st6" d="M308.27,177.04c0,0,5.51,5.81,5.36,8.78c-0.15,2.98-3.72,14.74-3.72,14.74l-2.23-17.27
			C307.67,183.29,306.48,178.97,308.27,177.04z"/>
		<g>
			<path class="st6" d="M290.12,164.64l-0.47,12.17c0,0,4.02,9.97,6.55,12.95c2.53,2.98,7.15,8.04,7.15,8.04l5.06-10.57l0.15-5.81
				l2.23-5.51c0,0-4.91-0.89-9.68-4.62c-4.76-3.72-9.68-8.19-10.12-8.34C290.55,162.82,290.12,164.64,290.12,164.64z"/>
			<path class="st3" d="M293.12,168.95c0,0,1.29,4.73,9.46,10.32c2.33,1.59,4.31,2.53,5.96,3.08l0.02-0.92l2.23-5.51
				c0,0-4.91-0.89-9.68-4.62c-1.21-0.94-2.42-1.94-3.58-2.89l-1.56-0.47L293.12,168.95z"/>
		</g>
		<g>
			<path class="st6" d="M323.12,138.6c0,0-0.54,12.49-0.89,16.77c-0.36,4.28-0.54,8.03-2.5,11.95c-1.96,3.92-4.1,9.99-7.49,10.52
				c-3.39,0.54-8.38,0.18-12.49-2.32c-4.1-2.5-9.45-9.45-9.63-10.88c-0.18-1.43-0.54-2.32-0.54-2.32s-2.14-12.84-2.14-18.55
				s0.54-10.52,9.63-13.73C306.18,126.83,323.12,138.6,323.12,138.6z"/>
			<path class="st3" d="M293.33,138.6c0,0,5.53,1.43,2.68,3.92c-2.85,2.5-5.53,5.35-5.53,5.35s0.89,3.57,0.54,4.99
				c-0.36,1.43-2.14,2.5-3.39,1.07c-1.25-1.43-2.32-2.5-2.32-2.5s-3.39-10.7-4.1-13.73c-0.71-3.03-1.43-6.24,3.03-9.27
				c4.46-3.03,5.35-3.39,5.35-3.39s7.49-4.99,17.84-4.1c10.35,0.89,14.98,6.78,14.98,6.78s8.2-2.14,7.67,3.75
				c-0.54,5.89-6.42,9.81-9.63,9.45c-3.21-0.36-20.16-8.92-23.54-7.49C293.51,134.85,291.02,138.06,293.33,138.6z"/>
			<path class="st2" d="M313.85,151.8c0,0,2.5,8.03,1.78,8.74c-0.71,0.71-3.57,1.25-3.57,1.25"/>
			<path class="st2" d="M315.45,165.18c0,0-5.71,1.61-9.99-1.07"/>
			<g>
				<path class="st2" d="M311.56,146.8c0,0-7.52-0.71-11.45-0.71c-3.92,0-5.35-0.36-5.53,0.71s-0.54,6.78,2.5,8.74
					c3.03,1.96,8.56,1.07,10.88,0.54c2.32-0.54,3.03-4.46,3.21-5.71C311.35,149.12,311.56,146.8,311.56,146.8z"/>
				<path class="st2" d="M313.77,146.82c0,0,5.97-0.38,9.09-0.22c3.12,0.16,4.25-0.12,4.39,0.91s0.42,6.55-1.98,8.31
					c-2.41,1.77-6.8,0.68-8.64,0.07c-1.84-0.61-2.41-4.42-2.55-5.63C313.93,149.06,313.77,146.82,313.77,146.82z"/>
				<line class="st2" x1="294.58" y1="146.8" x2="285.31" y2="151.44"/>
				<line class="st2" x1="311.56" y1="146.8" x2="313.96" y2="146.8"/>
			</g>
			<path class="st6" d="M290.48,155.9c0,0-4.1-5.17-6.96-4.46c-2.85,0.71-0.36,8.2,1.96,9.45c2.32,1.25,4.82-0.36,4.82-0.36"/>
			<path class="st4" d="M304.84,151.58c0,1.03-0.43,1.86-0.97,1.86c-0.53,0-0.97-0.83-0.97-1.86s0.43-1.86,0.97-1.86
				C304.41,149.72,304.84,150.55,304.84,151.58z"/>
			<ellipse class="st4" cx="318.17" cy="151.58" rx="0.97" ry="1.86"/>
			<path class="st2" d="M299.63,144.96c0,0,4.03-1.27,9.08,0.3"/>
			<path class="st2" d="M316.01,145.4c0,0,2.08-1.19,5.51-0.6"/>
		</g>
		<path class="st6" d="M299.78,303.21l0.21,3.67c0,0-8.49,1.74-20.27-0.97c-11.78-2.7-22.39-10.04-23.55-11.58s0.97-8.11,0.97-8.11
			s-1.54-0.39,1.16,0.58c2.7,0.97,13.32,10.23,27.8,12.74C300.57,302.05,299.95,301.09,299.78,303.21z"/>
		<path class="st8" d="M288.76,173.09c0,0,7.29,10.12,10.72,14.74c3.42,4.62,2.53,10.27,2.08,11.76c-0.45,1.49-1.04,4.02-1.04,4.02
			v94.09c0,0,1.34,5.06-0.74,5.51c-2.08,0.45-17.27-0.3-28.43-6.1c-11.17-5.81-15.04-9.83-15.04-9.83l2.83-22.93l1.19-12.8
			l-18.46,0.09c0,0,10.86-52.2,12.06-55.03c1.19-2.83,30.52-17.72,30.52-17.72S284.89,174.06,288.76,173.09z"/>
		<line class="st2" x1="325.7" y1="215.32" x2="325.46" y2="212.83"/>
		<line class="st2" x1="329.56" y1="254.45" x2="326.07" y2="219.01"/>
		<line class="st6" x1="260.33" y1="251.55" x2="263.8" y2="218.3"/>
		<path class="st6" d="M255.33,244.66c0,0-3.32-0.8-7.83,0c-4.51,0.8-6.63,9.16-6.9,12.08c-0.27,2.92,1.59,7.96,5.04,9.42
			c3.45,1.46,5.18,1.33,8.76-0.8c3.58-2.12,3.18-11.94,3.05-15.26S255.33,244.66,255.33,244.66z"/>
		<path class="st6" d="M264.14,235.06c0,0,1.33-8.89,1.46-11.81c0.13-2.92-0.27-6.5,0.27-7.7c0.53-1.19,2.39-0.13,3.05,0.66
			c0.66,0.8,1.19,4.91,1.06,6.5c-0.13,1.59,0,2.92,0,2.92s10.22-7.56,11.41-9.16c1.19-1.59,3.58-2.79,4.38-1.73
			c0.8,1.06-0.13,1.99-1.06,2.92c-0.93,0.93-5.71,6.37-6.5,7.03c-0.8,0.66-1.06,1.72-1.06,1.72s0.8,0.13,1.99-0.27
			c1.19-0.4,9.42-4.51,10.22-4.51c0.8,0,1.46,1.06,1.19,1.86c-0.27,0.8-10.35,6.9-10.75,7.03c-0.4,0.13-0.8,1.06-0.13,1.19
			c0.66,0.13,8.89-1.19,9.95-0.66c1.06,0.53,0.8,1.73,0.27,2.12c-0.53,0.4-10.35,2.12-10.35,2.12s3.18,0.66,4.51,0.93
			c1.33,0.27,3.58,0.27,3.58,1.06c0,0.8-0.53,1.19-1.46,1.19c-0.93,0-5.44,0-6.9,0c-1.46,0-4.38,1.19-6.77,2.26
			c-2.39,1.06-3.45,1.46-3.45,1.46s-6.5,11.81-8.89,16.06c-2.39,4.25-5.97,5.84-9.42,6.1c-3.45,0.27-7.03-5.97-6.37-9.02
			c0.66-3.05,6.24-9.82,11.15-12.34C260.42,240.5,261.88,237.97,264.14,235.06z"/>
		<path class="st6" d="M343.24,246.2c0,0-3.79-4.93-6.45-5.12c-2.66-0.19-7.4,8.35-7.4,11.95c0,3.6,0.19,10.44,1.71,11.38
			c1.52,0.95,4.36-0.76,6.07-3.04C338.88,259.1,343.24,246.2,343.24,246.2z"/>
		<g>
			<path class="st6" d="M386.74,222.8c0,0,0.22-4.06-0.55-3.84c-0.77,0.22-1.32,0.77-1.1,2.63c0.22,1.86-0.66,5.92-0.66,5.92
				L386.74,222.8z"/>
			<path class="st6" d="M339.36,244.84c0,0-6.03,10.97-5.81,13.93c0.22,2.96,2.74,3.95,7.35,2.63c4.61-1.32,36.74-18.86,38.28-20.29
				c1.54-1.43,6.8-12.39,8.55-14.37c1.75-1.97,1.54-6.91,1.54-7.79c0-0.88-1.54-0.55-1.54,0.55c0,1.1-3.73,8.23-4.28,8.44
				c-0.55,0.22-5.48,2.63-5.48,2.63s2.52-4.94,3.4-6.58c0.88-1.65,1.64-3.51-0.22-2.85c-1.86,0.66-4.83,5.7-5.92,8.44
				c-1.1,2.74-2.96,6.36-2.63,8.12c0.33,1.75,0.33,1.75,0.33,1.75s-11.08,2.52-17.66,2.85
				C348.68,242.65,339.69,243.74,339.36,244.84z"/>
			<path class="st6" d="M383.78,233.21c0,0,5.81-6.69,6.58-7.9c0.77-1.21,1.75-3.07,1.54-4.5c-0.22-1.43-1.21,0.33-1.97,1.54
				c-0.77,1.21-2.3,2.3-3.18,4.28c-0.88,1.97-2.96,2.52-2.96,2.52V233.21z"/>
			<path class="st6" d="M381.7,237.27c0,0,3.29-6.8,4.17-8.66c0.88-1.86,1.1-5.04,1.21-7.02c0.11-1.97-1.54-0.66-1.75,0.99
				c-0.22,1.65-1.54,6.58-1.54,6.58s-7.13,5.04-7.13,6.36c0,1.32,0.22,3.07,0.22,3.07"/>
		</g>
	</g>
</g>
<g id="Chair_1">
	<g>
		<rect x="147.48" y="340.5" class="st3" width="10.67" height="18.95"/>
		<path class="st7" d="M162.95,346.26h-21.9c-8.63,0-15.63-7-15.63-15.63v-50.07c0-8.63,7-15.63,15.63-15.63h21.9
			c8.63,0,15.63,7,15.63,15.63v50.07C178.58,339.26,171.58,346.26,162.95,346.26z"/>
		<g>
			<path class="st3" d="M136.06,458.73c0-2.49-2.02-4.51-4.51-4.51s-4.51,2.02-4.51,4.51c0,2.49,2.02,4.51,4.51,4.51
				S136.06,461.22,136.06,458.73z"/>
			<path class="st3" d="M224.27,458.73c0-2.49-2.02-4.51-4.51-4.51c-2.49,0-4.51,2.02-4.51,4.51c0,2.49,2.02,4.51,4.51,4.51
				C222.25,463.24,224.27,461.22,224.27,458.73z"/>
			<path class="st3" d="M177.84,458.73c0-2.49-0.94-4.51-2.1-4.51c-1.16,0-2.1,2.02-2.1,4.51c0,2.49,0.94,4.51,2.1,4.51
				C176.9,463.24,177.84,461.22,177.84,458.73z"/>
			<polygon class="st3" points="179.85,434.22 179.85,369.5 170.99,369.5 170.99,434.49 127.26,451.79 127.26,456.13 133.61,456.13 
				133.61,452.45 175.76,443.76 217.9,452.45 217.9,456.13 224.26,456.13 224.26,451.79 			"/>
			<polygon class="st3" points="173.53,456.12 177.96,456.12 178.91,435.11 172.58,435.11 			"/>
		</g>
		<rect x="164.14" y="367.03" class="st3" width="22.53" height="13.38"/>
		<path class="st7" d="M208.93,371.96h-69.16c-3.27,0-5.91-2.65-5.91-5.91v-5.43c0-3.27,2.65-5.91,5.91-5.91h69.16
			c3.27,0,5.91,2.65,5.91,5.91v5.43C214.85,369.32,212.2,371.96,208.93,371.96z"/>
	</g>
</g>
<g id="Character_1">
	<g>
		<g>
			<path class="st6" d="M273.9,402.5l6.89,10.21l8.17-0.51c0,0,15.57-2.81,17.62-3.32c2.04-0.51,2.81,1.28,1.79,3.32
				c-1.02,2.04-10.47,11.23-15.06,14.04c-4.6,2.81-17.62,7.4-18.89,7.66c-1.28,0.26-2.81-2.3-5.62-10.21
				c-2.81-7.91-7.91-15.83-7.91-15.83L273.9,402.5z"/>
			<g>
				<path class="st6" d="M308.36,412.21c1.02-2.04,0.26-3.83-1.79-3.32c-2.04,0.51-17.62,3.32-17.62,3.32l-8.17,0.51
					c0.26,4.6,1.28,6.89,1.28,6.89s-11.49,2.81-13.28,4.08c2.81,7.91,4.34,10.47,5.62,10.21c1.28-0.26,14.3-4.85,18.89-7.66
					C297.89,423.44,307.34,414.25,308.36,412.21z"/>
				<path class="st6" d="M308.36,412.21c0.43-0.87,0.53-1.67,0.36-2.29c-4.66,3.93-14.44,11.99-18.35,13.95
					c-3.72,1.86-13.41,5.27-18.68,7.08c1.13,2.29,1.97,3.12,2.72,2.97c1.28-0.26,14.3-4.85,18.89-7.66
					C297.89,423.44,307.34,414.25,308.36,412.21z"/>
			</g>
		</g>
		<path class="st8" d="M248.46,318.17c0,0,11.24,32.99,17.77,55.23c5.16,17.56,11.74,31.15,11.74,31.15s-5.36,3.06-8.94,4.85
			c-3.57,1.79-9.7,4.08-9.7,4.08s-4.85-7.66-9.96-17.62c-5.11-9.96-13.79-34.21-17.87-41.61s-9.7-18.64-9.7-18.64
			s-2.55-12.77,7.15-16.08C238.66,316.21,245.66,314.6,248.46,318.17z"/>
		<path class="st6" d="M209.72,312.65c0,0,4.39,2.93,4.52,3.42c0.12,0.49-0.12,0.85-1.1,1.22c-0.98,0.37-5.49,1.22-5.49,1.22
			L209.72,312.65z"/>
		<g>
			<path class="st6" d="M226.05,423.47c0,0-1.76,10.94-2.95,14.94c-1.19,3.99-4.48,11.26-3.45,13.07c1.04,1.81,6.48,3.66,9.26,3.89
				c2.78,0.23,6.34,4.77,11.51,6.65c5.17,1.88,12,1.37,11.84,0.01c-0.16-1.36-15.31-18.06-16.05-22.1
				c-0.74-4.04,1.92-16.74,1.92-16.74L226.05,423.47z"/>
			<g>
				<path class="st6" d="M234.32,442.62c-0.42,1.15-0.42,1.15-0.42,1.15s-7.01-0.78-11.82-2.38c-1.41,3.92-3.25,8.67-2.44,10.09
					c1.04,1.81,6.48,3.66,9.26,3.89c2.78,0.23,6.34,4.77,11.51,6.65c5.17,1.88,12,1.37,11.84,0.01
					c-0.16-1.36-15.31-18.06-16.05-22.1C236.22,439.92,234.74,441.47,234.32,442.62z"/>
				<path class="st6" d="M240.11,459.3c-4.09-2.01-7.79-5.43-13.23-7.28c-3.55-1.2-6.01-2.18-7.3-2.72
					c-0.17,0.97-0.17,1.73,0.08,2.17c1.04,1.81,6.48,3.66,9.26,3.89c2.78,0.23,6.34,4.77,11.51,6.65c4.93,1.79,11.35,1.41,11.8,0.19
					C248.82,461.7,242.92,460.68,240.11,459.3z"/>
			</g>
		</g>
		<path class="st8" d="M223.34,341.23c0,0,20.17,2.3,21.7,12.51c1.53,10.21-2.04,73.78-2.04,73.78s-4.85,0.26-8.94-0.51
			s-10.98-2.3-10.98-2.3s-1.02-21.7-2.3-30.38c-1.28-8.68-2.3-33.96-2.3-33.96s-33.7-2.81-36.76-4.85
			C178.67,353.49,223.34,341.23,223.34,341.23z"/>
		<g>
			<path class="st8" d="M245.3,336.12c0,0-45.19,17.62-56.68,21.45s-24,2.81-31.91,0.26c-7.91-2.55-11.8-12.71-11.8-12.71
				s-1.99-2.35-0.97-4.65c1.02-2.3,17.36-16.85,27.32-19.4c9.96-2.55,27.97-1.44,27.97-1.44s38.92-9.03,44.29-8.26
				c5.36,0.77,9.62,19.85,10.39,22.4"/>
			<path class="st2" d="M156.45,347.1c0,0,3.57-14.04,13.02-19.91"/>
			<path class="st2" d="M154.41,337.66c0,0,3.83-5.87,8.94-7.15"/>
		</g>
		<g>
			<path class="st3" d="M182.52,232.51c0,0,3.97,0.63,6.48,4.8c2.51,4.18,6.68,19.85,6.68,19.85s6.69,19.43,5.43,24.02
				c-1.25,4.6-6.27,11.28-6.27,11.28s0.42,15.04,1.67,17.97c1.25,2.92,2.72,9.19,2.72,9.19s-3.55,2.51-15.25,4.18
				c-11.7,1.67-21.31,2.51-25.28,5.64c-3.97,3.13-12.74,15.04-13.79,15.67c-1.04,0.63-2.72,1.88-3.55,0.21
				c-0.84-1.67-2.3-5.22-0.42-12.74c1.88-7.52,5.22-37.19,6.48-51.18c1.25-14-1.46-28.2,0.21-38.02
				c1.67-9.82,16.5-15.67,19.85-16.29C170.82,226.45,182.52,232.51,182.52,232.51z"/>
			<g>
				<path class="st9" d="M147.26,332.55c0,0,6.38-7.4,9.45-8.68s24.51-1.28,24.51-1.28"/>
				<path class="st9" d="M151.86,323.1c0,0,3.57-2.04,6.38-2.55s10.21,0,10.21,0"/>
				<path class="st9" d="M163.09,297.57c0,0,9.7-3.32,18.64-12"/>
			</g>
		</g>
		<path class="st6" d="M186.07,173.18c0,0,3.13,6.68,4.18,8.77c1.04,2.09,0.63,5.64,1.46,8.57c0.84,2.92,5.64,4.8,5.64,6.48
			c0,1.67-1.88,5.01-1.88,5.01s-1.04,12.95-2.72,14.41c-1.67,1.46-8.57,1.88-8.57,1.88l-3.55,13.58l3.55,2.09
			c0,0,0.63,12.33,0,16.71c-0.63,4.39-0.21,8.57-6.48,6.89c-6.27-1.67-15.88-18.38-16.71-20.47c-0.84-2.09,2.72-11.07-1.46-24.44
			c-4.18-13.37,5.01-25.49,11.07-31.13C176.67,175.9,179.59,172.14,186.07,173.18z"/>
		<path class="st3" d="M186.07,173.18c-0.21-3.76-0.63-5.22-8.36-6.06c-7.73-0.84-24.23-1.46-30.71,10.03
			c-6.48,11.49-6.48,36.56-6.48,36.56s-13.79,12.33-14.83,19.85c-1.04,7.52,3.97,14.62,11.91,17.13c0.15,0.05,0.31,0.08,0.47,0.12
			c0.7-3,1.98-6.8,4.34-9.63c4.52-5.42,8.43-4.82,14.15-6.32c5.81-1.53,9.37-1.9,10.21-8.43c0.85-6.57,2.1-13.58,1.54-20.24
			c-0.21-2.51,2.51-6.27,2.51-6.27s6.48,1.67,10.65-9.61C185.65,179.03,186.28,176.94,186.07,173.18z"/>
		<path class="st6" d="M173.53,203.05c0,0-2.09-9.61-7.52-5.85c-5.43,3.76,2.72,14.41,3.97,14.62c1.25,0.21,3.34-1.04,3.34-1.04"/>
		<polygon class="st3" points="184.19,218.3 177.71,217.47 182.31,223.53 		"/>
		<path class="st4" d="M191.06,192.91c0.27,1.42-0.01,2.66-0.63,2.78c-0.62,0.12-1.35-0.93-1.62-2.35s0.01-2.66,0.63-2.78
			C190.06,190.45,190.79,191.5,191.06,192.91z"/>
		<g>
			<g>
				<path class="st6" d="M204.25,306.78c0.81,0,1.43-0.09,1.6-0.11l-0.48-3.01c-1.01,0.15-3.32,0.15-4.02-0.85
					c-0.96-1.37-0.21-8.92,0.76-10.2c0.36-0.42,2.11-0.42,3.36-0.13l0.7-2.97c-0.75-0.18-4.59-0.95-6.38,1.13
					c-1.66,1.94-2.85,11.2-0.94,13.93C200.17,306.43,202.62,306.78,204.25,306.78z"/>
			</g>
			
				<rect x="204.13" y="286.75" transform="matrix(-1 -1.224647e-16 1.224647e-16 -1 426.4566 597.2037)" class="st6" width="18.2" height="23.71"/>
		</g>
		<g>
			<path class="st3" d="M151.44,236.66c0,0-9.64-3.01-14.05,15.63c-1.47,6.2-7.41,68.98-6.17,69.42
				c4.49,1.59,51.91-13.16,51.91-13.16s14.68-1,15.96-1.31c1.28-0.3,3.29-2.61,3.2-3.91c-0.09-1.29-0.05-3.9-0.05-3.9
				s2.21-2.54,1.45-4.22c-0.77-1.68-2.32-2.23-2.32-2.23l-3.04-0.01l-1.79-0.75c0,0,2.23-2.32,1.86-4.46s-2.18-3.32-2.94-1.75
				c-0.76,1.57-0.9,2.66-2.32,4.06c-1.42,1.4-3.46,3.27-4.44,4.86c-0.98,1.58-3.73,5.68-3.73,5.68l-34.17,1.86l5.19-39.37"/>
			<path class="st6" d="M203.68,295.22c-0.77-1.68-2.32-2.23-2.32-2.23l-3.04-0.01l-1.79-0.75c0,0,2.23-2.32,1.86-4.46
				c-0.36-2.14-2.18-3.32-2.94-1.75c-0.76,1.57-0.9,2.66-2.32,4.06c-1.42,1.4-3.46,3.27-4.44,4.86c-0.98,1.58-3.73,5.68-3.73,5.68
				l-34.17,1.86l2.26-17.16l-19.18-0.43c-1.75,17.96-3.34,36.58-2.67,36.82c4.49,1.59,51.91-13.16,51.91-13.16s14.68-1,15.96-1.31
				c1.28-0.3,3.29-2.61,3.2-3.91c-0.09-1.29-0.05-3.9-0.05-3.9S204.45,296.9,203.68,295.22z"/>
		</g>
		<g>
			<path class="st6" d="M202.15,312.38c0,0-3.83,0.77-4.85,2.04c-1.02,1.28-3.57,8.17-2.3,8.43c1.28,0.26,3.83-5.36,3.83-5.36
				S205.98,313.91,202.15,312.38z"/>
			<path class="st6" d="M203.86,312.4c0,0-1.46-0.12-2.56,0.49c-1.1,0.61-3.42,5.86-3.78,7.32c-0.37,1.46,0,2.93,0.98,2.56
				c0.98-0.37,4.39-5.61,5.37-6.23C204.84,315.94,205.57,312.42,203.86,312.4z"/>
			<path class="st6" d="M206.55,312.4c0,0-1.22-2.08-2.69,0c-1.46,2.08-3.91,8.42-3.3,8.91c0.61,0.49,2.08-1.1,3.05-2.2
				C204.6,318.02,207.28,315.21,206.55,312.4z"/>
			<path class="st6" d="M209.72,312.65c0,0-2.2-1.34-3.17-0.24c-0.98,1.1-1.71,6.96-1.46,7.57c0.24,0.61,2.2-0.85,2.56-1.46
				C208.01,317.9,209.72,312.65,209.72,312.65z"/>
		</g>
	</g>
</g>
</svg>
